# MagicaVoxel @ Ephtracy

# group
o 

# material
mtllib Aim.mtl
usemtl palette

# normals
vn -1 0 0
vn 1 0 0
vn 0 0 1
vn 0 0 -1
vn 0 -1 0
vn 0 1 0

# texcoords
vt 0.841797 0.5
vt 0.958984 0.5
vt 0.994141 0.5

# verts
v -1 0.1 0.4
v -1 0.1 -0.3
v -1 0.2 0.6
v -1 0.2 0.4
v -1 0.2 0.3
v -1 0.2 -0.2
v -1 0.2 -0.3
v -1 0.2 -0.5
v -1 0.3 0.7
v -1 0.3 0.6
v -1 0.3 0.5
v -1 0.3 0.3
v -1 0.3 -0.2
v -1 0.3 -0.4
v -1 0.3 -0.5
v -1 0.3 -0.6
v -1 0.4 0.8
v -1 0.4 0.7
v -1 0.4 0.5
v -1 0.4 -0.4
v -1 0.4 -0.6
v -1 0.4 -0.7
v -1 0.5 0.9
v -1 0.5 0.8
v -1 0.5 0.3
v -1 0.5 -0.2
v -1 0.5 -0.7
v -1 0.5 -0.8
v -1 0.6 0.8
v -1 0.6 0.7
v -1 0.6 0.4
v -1 0.6 0.3
v -1 0.6 -0.2
v -1 0.6 -0.3
v -1 0.6 -0.6
v -1 0.6 -0.7
v -1 0.7 1
v -1 0.7 0.9
v -1 0.7 0.5
v -1 0.7 0.4
v -1 0.7 0.3
v -1 0.7 -0.2
v -1 0.7 -0.3
v -1 0.7 -0.4
v -1 0.7 -0.8
v -1 0.7 -0.9
v -1 0.8 0.9
v -1 0.8 0.8
v -1 0.8 0.6
v -1 0.8 0.5
v -1 0.8 0.4
v -1 0.8 0.2
v -1 0.8 -0.1
v -1 0.8 -0.3
v -1 0.8 -0.4
v -1 0.8 -0.5
v -1 0.8 -0.7
v -1 0.8 -0.8
v -1 0.9 0.3
v -1 0.9 0.2
v -1 0.9 -0.1
v -1 0.9 -0.2
v -1 1.2 0.3
v -1 1.2 0.2
v -1 1.2 -0.1
v -1 1.2 -0.2
v -1 1.3 0.9
v -1 1.3 0.8
v -1 1.3 0.6
v -1 1.3 0.5
v -1 1.3 0.4
v -1 1.3 0.2
v -1 1.3 -0.1
v -1 1.3 -0.3
v -1 1.3 -0.4
v -1 1.3 -0.5
v -1 1.3 -0.7
v -1 1.3 -0.8
v -1 1.4 1
v -1 1.4 0.9
v -1 1.4 0.5
v -1 1.4 0.4
v -1 1.4 0.3
v -1 1.4 -0.2
v -1 1.4 -0.3
v -1 1.4 -0.4
v -1 1.4 -0.8
v -1 1.4 -0.9
v -1 1.5 0.8
v -1 1.5 0.7
v -1 1.5 0.4
v -1 1.5 0.3
v -1 1.5 -0.2
v -1 1.5 -0.3
v -1 1.5 -0.6
v -1 1.5 -0.7
v -1 1.6 0.9
v -1 1.6 0.8
v -1 1.6 0.3
v -1 1.6 -0.2
v -1 1.6 -0.7
v -1 1.6 -0.8
v -1 1.7 0.8
v -1 1.7 0.7
v -1 1.7 0.5
v -1 1.7 -0.4
v -1 1.7 -0.6
v -1 1.7 -0.7
v -1 1.8 0.7
v -1 1.8 0.6
v -1 1.8 0.5
v -1 1.8 0.3
v -1 1.8 -0.2
v -1 1.8 -0.4
v -1 1.8 -0.5
v -1 1.8 -0.6
v -1 1.9 0.6
v -1 1.9 0.4
v -1 1.9 0.3
v -1 1.9 -0.2
v -1 1.9 -0.3
v -1 1.9 -0.5
v -1 2 0.4
v -1 2 -0.3
v -0.9 0.1 0.4
v -0.9 0.1 -0.3
v -0.9 0.2 0.6
v -0.9 0.2 0.4
v -0.9 0.2 0.3
v -0.9 0.2 -0.2
v -0.9 0.2 -0.3
v -0.9 0.2 -0.5
v -0.9 0.3 0.7
v -0.9 0.3 0.6
v -0.9 0.3 0.5
v -0.9 0.3 0.3
v -0.9 0.3 -0.2
v -0.9 0.3 -0.4
v -0.9 0.3 -0.5
v -0.9 0.3 -0.6
v -0.9 0.4 0.8
v -0.9 0.4 0.7
v -0.9 0.4 0.5
v -0.9 0.4 -0.4
v -0.9 0.4 -0.6
v -0.9 0.4 -0.7
v -0.9 0.5 0.9
v -0.9 0.5 0.8
v -0.9 0.5 0.3
v -0.9 0.5 -0.2
v -0.9 0.5 -0.7
v -0.9 0.5 -0.8
v -0.9 0.6 0.8
v -0.9 0.6 0.7
v -0.9 0.6 0.4
v -0.9 0.6 0.3
v -0.9 0.6 -0.2
v -0.9 0.6 -0.3
v -0.9 0.6 -0.6
v -0.9 0.6 -0.7
v -0.9 0.7 1
v -0.9 0.7 0.9
v -0.9 0.7 0.5
v -0.9 0.7 0.4
v -0.9 0.7 0.3
v -0.9 0.7 -0.2
v -0.9 0.7 -0.3
v -0.9 0.7 -0.4
v -0.9 0.7 -0.8
v -0.9 0.7 -0.9
v -0.9 0.8 0.9
v -0.9 0.8 0.8
v -0.9 0.8 0.6
v -0.9 0.8 0.5
v -0.9 0.8 0.4
v -0.9 0.8 0.2
v -0.9 0.8 -0.1
v -0.9 0.8 -0.3
v -0.9 0.8 -0.4
v -0.9 0.8 -0.5
v -0.9 0.8 -0.7
v -0.9 0.8 -0.8
v -0.9 0.9 0.3
v -0.9 0.9 0.2
v -0.9 0.9 -0.1
v -0.9 0.9 -0.2
v -0.9 1.2 0.3
v -0.9 1.2 0.2
v -0.9 1.2 -0.1
v -0.9 1.2 -0.2
v -0.9 1.3 0.9
v -0.9 1.3 0.8
v -0.9 1.3 0.6
v -0.9 1.3 0.5
v -0.9 1.3 0.4
v -0.9 1.3 0.2
v -0.9 1.3 -0.1
v -0.9 1.3 -0.3
v -0.9 1.3 -0.4
v -0.9 1.3 -0.5
v -0.9 1.3 -0.7
v -0.9 1.3 -0.8
v -0.9 1.4 1
v -0.9 1.4 0.9
v -0.9 1.4 0.5
v -0.9 1.4 0.4
v -0.9 1.4 0.3
v -0.9 1.4 -0.2
v -0.9 1.4 -0.3
v -0.9 1.4 -0.4
v -0.9 1.4 -0.8
v -0.9 1.4 -0.9
v -0.9 1.5 0.8
v -0.9 1.5 0.7
v -0.9 1.5 0.4
v -0.9 1.5 0.3
v -0.9 1.5 -0.2
v -0.9 1.5 -0.3
v -0.9 1.5 -0.6
v -0.9 1.5 -0.7
v -0.9 1.6 0.9
v -0.9 1.6 0.8
v -0.9 1.6 0.3
v -0.9 1.6 -0.2
v -0.9 1.6 -0.7
v -0.9 1.6 -0.8
v -0.9 1.7 0.8
v -0.9 1.7 0.7
v -0.9 1.7 0.5
v -0.9 1.7 -0.4
v -0.9 1.7 -0.6
v -0.9 1.7 -0.7
v -0.9 1.8 0.7
v -0.9 1.8 0.6
v -0.9 1.8 0.5
v -0.9 1.8 0.3
v -0.9 1.8 -0.2
v -0.9 1.8 -0.4
v -0.9 1.8 -0.5
v -0.9 1.8 -0.6
v -0.9 1.9 0.6
v -0.9 1.9 0.4
v -0.9 1.9 0.3
v -0.9 1.9 -0.2
v -0.9 1.9 -0.3
v -0.9 1.9 -0.5
v -0.9 2 0.4
v -0.9 2 -0.3
v -1 0.7 1
v -1 1.4 1
v -0.9 0.7 1
v -0.9 1.4 1
v -1 0.5 0.9
v -1 0.7 0.9
v -1 1.4 0.9
v -1 1.6 0.9
v -0.9 0.5 0.9
v -0.9 0.7 0.9
v -0.9 1.4 0.9
v -0.9 1.6 0.9
v -1 0.4 0.8
v -1 0.5 0.8
v -1 1.6 0.8
v -1 1.7 0.8
v -0.9 0.4 0.8
v -0.9 0.5 0.8
v -0.9 1.6 0.8
v -0.9 1.7 0.8
v -1 0.3 0.7
v -1 0.4 0.7
v -1 1.7 0.7
v -1 1.8 0.7
v -0.9 0.3 0.7
v -0.9 0.4 0.7
v -0.9 1.7 0.7
v -0.9 1.8 0.7
v -1 0.2 0.6
v -1 0.3 0.6
v -1 1.8 0.6
v -1 1.9 0.6
v -0.9 0.2 0.6
v -0.9 0.3 0.6
v -0.9 1.8 0.6
v -0.9 1.9 0.6
v -1 0.1 0.4
v -1 0.2 0.4
v -1 1.9 0.4
v -1 2 0.4
v -0.9 0.1 0.4
v -0.9 0.2 0.4
v -0.9 1.9 0.4
v -0.9 2 0.4
v -1 0.1 -0.3
v -1 0.2 -0.3
v -1 1.9 -0.3
v -1 2 -0.3
v -0.9 0.1 -0.3
v -0.9 0.2 -0.3
v -0.9 1.9 -0.3
v -0.9 2 -0.3
v -1 0.2 -0.5
v -1 0.3 -0.5
v -1 1.8 -0.5
v -1 1.9 -0.5
v -0.9 0.2 -0.5
v -0.9 0.3 -0.5
v -0.9 1.8 -0.5
v -0.9 1.9 -0.5
v -1 0.3 -0.6
v -1 0.4 -0.6
v -1 1.7 -0.6
v -1 1.8 -0.6
v -0.9 0.3 -0.6
v -0.9 0.4 -0.6
v -0.9 1.7 -0.6
v -0.9 1.8 -0.6
v -1 0.4 -0.7
v -1 0.5 -0.7
v -1 1.6 -0.7
v -1 1.7 -0.7
v -0.9 0.4 -0.7
v -0.9 0.5 -0.7
v -0.9 1.6 -0.7
v -0.9 1.7 -0.7
v -1 0.5 -0.8
v -1 0.7 -0.8
v -1 1.4 -0.8
v -1 1.6 -0.8
v -0.9 0.5 -0.8
v -0.9 0.7 -0.8
v -0.9 1.4 -0.8
v -0.9 1.6 -0.8
v -1 0.7 -0.9
v -1 1.4 -0.9
v -0.9 0.7 -0.9
v -0.9 1.4 -0.9
v -1 0.1 0.4
v -0.9 0.1 0.4
v -1 0.1 -0.3
v -0.9 0.1 -0.3
v -1 0.2 0.6
v -0.9 0.2 0.6
v -1 0.2 0.4
v -0.9 0.2 0.4
v -1 0.2 -0.3
v -0.9 0.2 -0.3
v -1 0.2 -0.5
v -0.9 0.2 -0.5
v -1 0.3 0.7
v -0.9 0.3 0.7
v -1 0.3 0.6
v -0.9 0.3 0.6
v -1 0.3 -0.5
v -0.9 0.3 -0.5
v -1 0.3 -0.6
v -0.9 0.3 -0.6
v -1 0.4 0.8
v -0.9 0.4 0.8
v -1 0.4 0.7
v -0.9 0.4 0.7
v -1 0.4 -0.6
v -0.9 0.4 -0.6
v -1 0.4 -0.7
v -0.9 0.4 -0.7
v -1 0.5 0.9
v -0.9 0.5 0.9
v -1 0.5 0.8
v -0.9 0.5 0.8
v -1 0.5 -0.7
v -0.9 0.5 -0.7
v -1 0.5 -0.8
v -0.9 0.5 -0.8
v -1 0.7 1
v -0.9 0.7 1
v -1 0.7 0.9
v -0.9 0.7 0.9
v -1 0.7 -0.8
v -0.9 0.7 -0.8
v -1 0.7 -0.9
v -0.9 0.7 -0.9
v -1 1.4 1
v -0.9 1.4 1
v -1 1.4 0.9
v -0.9 1.4 0.9
v -1 1.4 -0.8
v -0.9 1.4 -0.8
v -1 1.4 -0.9
v -0.9 1.4 -0.9
v -1 1.6 0.9
v -0.9 1.6 0.9
v -1 1.6 0.8
v -0.9 1.6 0.8
v -1 1.6 -0.7
v -0.9 1.6 -0.7
v -1 1.6 -0.8
v -0.9 1.6 -0.8
v -1 1.7 0.8
v -0.9 1.7 0.8
v -1 1.7 0.7
v -0.9 1.7 0.7
v -1 1.7 -0.6
v -0.9 1.7 -0.6
v -1 1.7 -0.7
v -0.9 1.7 -0.7
v -1 1.8 0.7
v -0.9 1.8 0.7
v -1 1.8 0.6
v -0.9 1.8 0.6
v -1 1.8 -0.5
v -0.9 1.8 -0.5
v -1 1.8 -0.6
v -0.9 1.8 -0.6
v -1 1.9 0.6
v -0.9 1.9 0.6
v -1 1.9 0.4
v -0.9 1.9 0.4
v -1 1.9 -0.3
v -0.9 1.9 -0.3
v -1 1.9 -0.5
v -0.9 1.9 -0.5
v -1 2 0.4
v -0.9 2 0.4
v -1 2 -0.3
v -0.9 2 -0.3

# faces
f 4/3/1 2/3/1 1/3/1
f 5/3/1 2/3/1 4/3/1
f 6/3/1 2/3/1 5/3/1
f 7/3/1 2/3/1 6/3/1
f 10/3/1 4/3/1 3/3/1
f 10/3/1 5/3/1 4/3/1
f 11/3/1 5/3/1 10/3/1
f 12/2/1 6/2/1 5/2/1
f 12/3/1 5/3/1 11/3/1
f 13/3/1 8/3/1 7/3/1
f 13/2/1 6/2/1 12/2/1
f 13/3/1 7/3/1 6/3/1
f 14/3/1 8/3/1 13/3/1
f 15/3/1 8/3/1 14/3/1
f 18/3/1 10/3/1 9/3/1
f 18/3/1 11/3/1 10/3/1
f 19/2/1 12/2/1 11/2/1
f 19/2/1 13/2/1 12/2/1
f 19/3/1 11/3/1 18/3/1
f 19/2/1 14/2/1 13/2/1
f 20/3/1 16/3/1 15/3/1
f 20/2/1 14/2/1 19/2/1
f 20/3/1 15/3/1 14/3/1
f 21/3/1 16/3/1 20/3/1
f 24/3/1 18/3/1 17/3/1
f 25/2/1 19/2/1 18/2/1
f 25/2/1 20/2/1 19/2/1
f 25/2/1 21/2/1 20/2/1
f 26/2/1 21/2/1 25/2/1
f 27/3/1 22/3/1 21/3/1
f 29/3/1 24/3/1 23/3/1
f 29/3/1 18/3/1 24/3/1
f 30/2/1 25/2/1 18/2/1
f 30/3/1 18/3/1 29/3/1
f 31/2/1 25/2/1 30/2/1
f 32/3/1 26/3/1 25/3/1
f 32/2/1 25/2/1 31/2/1
f 33/2/1 21/2/1 26/2/1
f 33/3/1 26/3/1 32/3/1
f 34/2/1 21/2/1 33/2/1
f 35/3/1 28/3/1 27/3/1
f 35/2/1 21/2/1 34/2/1
f 35/3/1 27/3/1 21/3/1
f 36/3/1 28/3/1 35/3/1
f 38/3/1 29/3/1 23/3/1
f 39/2/1 31/2/1 30/2/1
f 39/2/1 30/2/1 29/2/1
f 40/3/1 32/3/1 31/3/1
f 40/2/1 31/2/1 39/2/1
f 41/2/1 33/2/1 32/2/1
f 41/3/1 32/3/1 40/3/1
f 42/3/1 34/3/1 33/3/1
f 42/2/1 33/2/1 41/2/1
f 43/2/1 35/2/1 34/2/1
f 43/3/1 34/3/1 42/3/1
f 43/2/1 36/2/1 35/2/1
f 44/2/1 36/2/1 43/2/1
f 45/3/1 28/3/1 36/3/1
f 47/3/1 38/3/1 37/3/1
f 47/3/1 29/3/1 38/3/1
f 48/2/1 39/2/1 29/2/1
f 48/3/1 29/3/1 47/3/1
f 49/2/1 39/2/1 48/2/1
f 50/3/1 40/3/1 39/3/1
f 50/2/1 39/2/1 49/2/1
f 51/2/1 41/2/1 40/2/1
f 51/3/1 40/3/1 50/3/1
f 51/2/1 42/2/1 41/2/1
f 51/2/1 43/2/1 42/2/1
f 52/2/1 43/2/1 51/2/1
f 53/2/1 43/2/1 52/2/1
f 54/3/1 44/3/1 43/3/1
f 54/2/1 43/2/1 53/2/1
f 55/2/1 36/2/1 44/2/1
f 55/3/1 44/3/1 54/3/1
f 56/2/1 36/2/1 55/2/1
f 57/3/1 46/3/1 45/3/1
f 57/2/1 36/2/1 56/2/1
f 57/3/1 45/3/1 36/3/1
f 58/3/1 46/3/1 57/3/1
f 59/2/1 51/2/1 50/2/1
f 59/2/1 52/2/1 51/2/1
f 60/1/1 53/1/1 52/1/1
f 60/2/1 52/2/1 59/2/1
f 61/2/1 54/2/1 53/2/1
f 61/1/1 53/1/1 60/1/1
f 61/2/1 55/2/1 54/2/1
f 62/2/1 55/2/1 61/2/1
f 63/1/1 60/1/1 59/1/1
f 63/2/1 59/2/1 50/2/1
f 63/1/1 62/1/1 61/1/1
f 63/1/1 61/1/1 60/1/1
f 64/1/1 62/1/1 63/1/1
f 65/1/1 62/1/1 64/1/1
f 66/2/1 55/2/1 62/2/1
f 66/1/1 62/1/1 65/1/1
f 67/3/1 47/3/1 37/3/1
f 67/2/1 49/2/1 48/2/1
f 67/2/1 48/2/1 47/2/1
f 68/2/1 49/2/1 67/2/1
f 69/3/1 50/3/1 49/3/1
f 69/2/1 49/2/1 68/2/1
f 70/2/1 64/2/1 63/2/1
f 70/3/1 50/3/1 69/3/1
f 70/2/1 63/2/1 50/2/1
f 71/2/1 64/2/1 70/2/1
f 72/1/1 65/1/1 64/1/1
f 72/2/1 64/2/1 71/2/1
f 73/2/1 66/2/1 65/2/1
f 73/1/1 65/1/1 72/1/1
f 74/2/1 55/2/1 66/2/1
f 74/2/1 66/2/1 73/2/1
f 75/3/1 56/3/1 55/3/1
f 75/2/1 55/2/1 74/2/1
f 76/2/1 57/2/1 56/2/1
f 76/3/1 56/3/1 75/3/1
f 76/2/1 58/2/1 57/2/1
f 77/2/1 58/2/1 76/2/1
f 78/3/1 46/3/1 58/3/1
f 78/2/1 58/2/1 77/2/1
f 79/3/1 68/3/1 67/3/1
f 79/3/1 67/3/1 37/3/1
f 80/3/1 68/3/1 79/3/1
f 81/3/1 71/3/1 70/3/1
f 81/2/1 69/2/1 68/2/1
f 81/2/1 70/2/1 69/2/1
f 82/2/1 73/2/1 72/2/1
f 82/3/1 71/3/1 81/3/1
f 82/2/1 72/2/1 71/2/1
f 82/2/1 74/2/1 73/2/1
f 83/2/1 74/2/1 82/2/1
f 84/2/1 74/2/1 83/2/1
f 85/3/1 75/3/1 74/3/1
f 85/2/1 74/2/1 84/2/1
f 86/2/1 76/2/1 75/2/1
f 86/3/1 75/3/1 85/3/1
f 86/2/1 77/2/1 76/2/1
f 87/3/1 46/3/1 78/3/1
f 87/3/1 78/3/1 77/3/1
f 88/3/1 46/3/1 87/3/1
f 89/2/1 81/2/1 68/2/1
f 89/3/1 68/3/1 80/3/1
f 89/2/1 82/2/1 81/2/1
f 90/2/1 82/2/1 89/2/1
f 91/3/1 83/3/1 82/3/1
f 91/2/1 82/2/1 90/2/1
f 92/2/1 84/2/1 83/2/1
f 92/3/1 83/3/1 91/3/1
f 93/3/1 85/3/1 84/3/1
f 93/2/1 84/2/1 92/2/1
f 94/2/1 86/2/1 85/2/1
f 94/3/1 85/3/1 93/3/1
f 95/2/1 77/2/1 86/2/1
f 95/2/1 86/2/1 94/2/1
f 96/3/1 87/3/1 77/3/1
f 96/2/1 77/2/1 95/2/1
f 97/3/1 90/3/1 89/3/1
f 97/3/1 89/3/1 80/3/1
f 98/3/1 90/3/1 97/3/1
f 99/2/1 92/2/1 91/2/1
f 99/3/1 93/3/1 92/3/1
f 99/2/1 91/2/1 90/2/1
f 100/2/1 94/2/1 93/2/1
f 100/3/1 93/3/1 99/3/1
f 100/2/1 95/2/1 94/2/1
f 101/3/1 96/3/1 95/3/1
f 101/3/1 87/3/1 96/3/1
f 102/3/1 87/3/1 101/3/1
f 103/3/1 90/3/1 98/3/1
f 104/2/1 99/2/1 90/2/1
f 104/3/1 90/3/1 103/3/1
f 104/2/1 100/2/1 99/2/1
f 105/2/1 100/2/1 104/2/1
f 106/2/1 95/2/1 100/2/1
f 106/2/1 100/2/1 105/2/1
f 107/3/1 101/3/1 95/3/1
f 107/2/1 95/2/1 106/2/1
f 108/3/1 101/3/1 107/3/1
f 109/3/1 105/3/1 104/3/1
f 110/3/1 105/3/1 109/3/1
f 111/2/1 106/2/1 105/2/1
f 111/3/1 105/3/1 110/3/1
f 112/2/1 106/2/1 111/2/1
f 113/2/1 106/2/1 112/2/1
f 114/3/1 107/3/1 106/3/1
f 114/2/1 106/2/1 113/2/1
f 115/3/1 107/3/1 114/3/1
f 116/3/1 107/3/1 115/3/1
f 117/3/1 111/3/1 110/3/1
f 117/3/1 112/3/1 111/3/1
f 118/3/1 112/3/1 117/3/1
f 119/2/1 113/2/1 112/2/1
f 119/3/1 112/3/1 118/3/1
f 120/3/1 115/3/1 114/3/1
f 120/2/1 113/2/1 119/2/1
f 120/3/1 114/3/1 113/3/1
f 121/3/1 115/3/1 120/3/1
f 122/3/1 115/3/1 121/3/1
f 123/3/1 119/3/1 118/3/1
f 123/3/1 121/3/1 120/3/1
f 123/3/1 120/3/1 119/3/1
f 124/3/1 121/3/1 123/3/1
f 125/3/2 126/3/2 128/3/2
f 128/3/2 126/3/2 129/3/2
f 129/3/2 126/3/2 130/3/2
f 130/3/2 126/3/2 131/3/2
f 127/3/2 128/3/2 134/3/2
f 128/3/2 129/3/2 134/3/2
f 134/3/2 129/3/2 135/3/2
f 129/2/2 130/2/2 136/2/2
f 135/3/2 129/3/2 136/3/2
f 131/3/2 132/3/2 137/3/2
f 136/2/2 130/2/2 137/2/2
f 130/3/2 131/3/2 137/3/2
f 137/3/2 132/3/2 138/3/2
f 138/3/2 132/3/2 139/3/2
f 133/3/2 134/3/2 142/3/2
f 134/3/2 135/3/2 142/3/2
f 135/2/2 136/2/2 143/2/2
f 136/2/2 137/2/2 143/2/2
f 142/3/2 135/3/2 143/3/2
f 137/2/2 138/2/2 143/2/2
f 139/3/2 140/3/2 144/3/2
f 143/2/2 138/2/2 144/2/2
f 138/3/2 139/3/2 144/3/2
f 144/3/2 140/3/2 145/3/2
f 141/3/2 142/3/2 148/3/2
f 142/2/2 143/2/2 149/2/2
f 143/2/2 144/2/2 149/2/2
f 144/2/2 145/2/2 149/2/2
f 149/2/2 145/2/2 150/2/2
f 145/3/2 146/3/2 151/3/2
f 147/3/2 148/3/2 153/3/2
f 148/3/2 142/3/2 153/3/2
f 142/2/2 149/2/2 154/2/2
f 153/3/2 142/3/2 154/3/2
f 154/2/2 149/2/2 155/2/2
f 149/3/2 150/3/2 156/3/2
f 155/2/2 149/2/2 156/2/2
f 150/2/2 145/2/2 157/2/2
f 156/3/2 150/3/2 157/3/2
f 157/2/2 145/2/2 158/2/2
f 151/3/2 152/3/2 159/3/2
f 158/2/2 145/2/2 159/2/2
f 145/3/2 151/3/2 159/3/2
f 159/3/2 152/3/2 160/3/2
f 147/3/2 153/3/2 162/3/2
f 154/2/2 155/2/2 163/2/2
f 153/2/2 154/2/2 163/2/2
f 155/3/2 156/3/2 164/3/2
f 163/2/2 155/2/2 164/2/2
f 156/2/2 157/2/2 165/2/2
f 164/3/2 156/3/2 165/3/2
f 157/3/2 158/3/2 166/3/2
f 165/2/2 157/2/2 166/2/2
f 158/2/2 159/2/2 167/2/2
f 166/3/2 158/3/2 167/3/2
f 159/2/2 160/2/2 167/2/2
f 167/2/2 160/2/2 168/2/2
f 160/3/2 152/3/2 169/3/2
f 161/3/2 162/3/2 171/3/2
f 162/3/2 153/3/2 171/3/2
f 153/2/2 163/2/2 172/2/2
f 171/3/2 153/3/2 172/3/2
f 172/2/2 163/2/2 173/2/2
f 163/3/2 164/3/2 174/3/2
f 173/2/2 163/2/2 174/2/2
f 164/2/2 165/2/2 175/2/2
f 174/3/2 164/3/2 175/3/2
f 165/2/2 166/2/2 175/2/2
f 166/2/2 167/2/2 175/2/2
f 175/2/2 167/2/2 176/2/2
f 176/2/2 167/2/2 177/2/2
f 167/3/2 168/3/2 178/3/2
f 177/2/2 167/2/2 178/2/2
f 168/2/2 160/2/2 179/2/2
f 178/3/2 168/3/2 179/3/2
f 179/2/2 160/2/2 180/2/2
f 169/3/2 170/3/2 181/3/2
f 180/2/2 160/2/2 181/2/2
f 160/3/2 169/3/2 181/3/2
f 181/3/2 170/3/2 182/3/2
f 174/2/2 175/2/2 183/2/2
f 175/2/2 176/2/2 183/2/2
f 176/1/2 177/1/2 184/1/2
f 183/2/2 176/2/2 184/2/2
f 177/2/2 178/2/2 185/2/2
f 184/1/2 177/1/2 185/1/2
f 178/2/2 179/2/2 185/2/2
f 185/2/2 179/2/2 186/2/2
f 183/1/2 184/1/2 187/1/2
f 174/2/2 183/2/2 187/2/2
f 185/1/2 186/1/2 187/1/2
f 184/1/2 185/1/2 187/1/2
f 187/1/2 186/1/2 188/1/2
f 188/1/2 186/1/2 189/1/2
f 186/2/2 179/2/2 190/2/2
f 189/1/2 186/1/2 190/1/2
f 161/3/2 171/3/2 191/3/2
f 172/2/2 173/2/2 191/2/2
f 171/2/2 172/2/2 191/2/2
f 191/2/2 173/2/2 192/2/2
f 173/3/2 174/3/2 193/3/2
f 192/2/2 173/2/2 193/2/2
f 187/2/2 188/2/2 194/2/2
f 193/3/2 174/3/2 194/3/2
f 174/2/2 187/2/2 194/2/2
f 194/2/2 188/2/2 195/2/2
f 188/1/2 189/1/2 196/1/2
f 195/2/2 188/2/2 196/2/2
f 189/2/2 190/2/2 197/2/2
f 196/1/2 189/1/2 197/1/2
f 190/2/2 179/2/2 198/2/2
f 197/2/2 190/2/2 198/2/2
f 179/3/2 180/3/2 199/3/2
f 198/2/2 179/2/2 199/2/2
f 180/2/2 181/2/2 200/2/2
f 199/3/2 180/3/2 200/3/2
f 181/2/2 182/2/2 200/2/2
f 200/2/2 182/2/2 201/2/2
f 182/3/2 170/3/2 202/3/2
f 201/2/2 182/2/2 202/2/2
f 191/3/2 192/3/2 203/3/2
f 161/3/2 191/3/2 203/3/2
f 203/3/2 192/3/2 204/3/2
f 194/3/2 195/3/2 205/3/2
f 192/2/2 193/2/2 205/2/2
f 193/2/2 194/2/2 205/2/2
f 196/2/2 197/2/2 206/2/2
f 205/3/2 195/3/2 206/3/2
f 195/2/2 196/2/2 206/2/2
f 197/2/2 198/2/2 206/2/2
f 206/2/2 198/2/2 207/2/2
f 207/2/2 198/2/2 208/2/2
f 198/3/2 199/3/2 209/3/2
f 208/2/2 198/2/2 209/2/2
f 199/2/2 200/2/2 210/2/2
f 209/3/2 199/3/2 210/3/2
f 200/2/2 201/2/2 210/2/2
f 202/3/2 170/3/2 211/3/2
f 201/3/2 202/3/2 211/3/2
f 211/3/2 170/3/2 212/3/2
f 192/2/2 205/2/2 213/2/2
f 204/3/2 192/3/2 213/3/2
f 205/2/2 206/2/2 213/2/2
f 213/2/2 206/2/2 214/2/2
f 206/3/2 207/3/2 215/3/2
f 214/2/2 206/2/2 215/2/2
f 207/2/2 208/2/2 216/2/2
f 215/3/2 207/3/2 216/3/2
f 208/3/2 209/3/2 217/3/2
f 216/2/2 208/2/2 217/2/2
f 209/2/2 210/2/2 218/2/2
f 217/3/2 209/3/2 218/3/2
f 210/2/2 201/2/2 219/2/2
f 218/2/2 210/2/2 219/2/2
f 201/3/2 211/3/2 220/3/2
f 219/2/2 201/2/2 220/2/2
f 213/3/2 214/3/2 221/3/2
f 204/3/2 213/3/2 221/3/2
f 221/3/2 214/3/2 222/3/2
f 215/2/2 216/2/2 223/2/2
f 216/3/2 217/3/2 223/3/2
f 214/2/2 215/2/2 223/2/2
f 217/2/2 218/2/2 224/2/2
f 223/3/2 217/3/2 224/3/2
f 218/2/2 219/2/2 224/2/2
f 219/3/2 220/3/2 225/3/2
f 220/3/2 211/3/2 225/3/2
f 225/3/2 211/3/2 226/3/2
f 222/3/2 214/3/2 227/3/2
f 214/2/2 223/2/2 228/2/2
f 227/3/2 214/3/2 228/3/2
f 223/2/2 224/2/2 228/2/2
f 228/2/2 224/2/2 229/2/2
f 224/2/2 219/2/2 230/2/2
f 229/2/2 224/2/2 230/2/2
f 219/3/2 225/3/2 231/3/2
f 230/2/2 219/2/2 231/2/2
f 231/3/2 225/3/2 232/3/2
f 228/3/2 229/3/2 233/3/2
f 233/3/2 229/3/2 234/3/2
f 229/2/2 230/2/2 235/2/2
f 234/3/2 229/3/2 235/3/2
f 235/2/2 230/2/2 236/2/2
f 236/2/2 230/2/2 237/2/2
f 230/3/2 231/3/2 238/3/2
f 237/2/2 230/2/2 238/2/2
f 238/3/2 231/3/2 239/3/2
f 239/3/2 231/3/2 240/3/2
f 234/3/2 235/3/2 241/3/2
f 235/3/2 236/3/2 241/3/2
f 241/3/2 236/3/2 242/3/2
f 236/2/2 237/2/2 243/2/2
f 242/3/2 236/3/2 243/3/2
f 238/3/2 239/3/2 244/3/2
f 243/2/2 237/2/2 244/2/2
f 237/3/2 238/3/2 244/3/2
f 244/3/2 239/3/2 245/3/2
f 245/3/2 239/3/2 246/3/2
f 242/3/2 243/3/2 247/3/2
f 244/3/2 245/3/2 247/3/2
f 243/3/2 244/3/2 247/3/2
f 247/3/2 245/3/2 248/3/2
f 251/3/3 250/3/3 249/3/3
f 252/3/3 250/3/3 251/3/3
f 257/3/3 254/3/3 253/3/3
f 258/3/3 254/3/3 257/3/3
f 259/3/3 256/3/3 255/3/3
f 260/3/3 256/3/3 259/3/3
f 265/3/3 262/3/3 261/3/3
f 266/3/3 262/3/3 265/3/3
f 267/3/3 264/3/3 263/3/3
f 268/3/3 264/3/3 267/3/3
f 273/3/3 270/3/3 269/3/3
f 274/3/3 270/3/3 273/3/3
f 275/3/3 272/3/3 271/3/3
f 276/3/3 272/3/3 275/3/3
f 281/3/3 278/3/3 277/3/3
f 282/3/3 278/3/3 281/3/3
f 283/3/3 280/3/3 279/3/3
f 284/3/3 280/3/3 283/3/3
f 289/3/3 286/3/3 285/3/3
f 290/3/3 286/3/3 289/3/3
f 291/3/3 288/3/3 287/3/3
f 292/3/3 288/3/3 291/3/3
f 293/3/4 294/3/4 297/3/4
f 297/3/4 294/3/4 298/3/4
f 295/3/4 296/3/4 299/3/4
f 299/3/4 296/3/4 300/3/4
f 301/3/4 302/3/4 305/3/4
f 305/3/4 302/3/4 306/3/4
f 303/3/4 304/3/4 307/3/4
f 307/3/4 304/3/4 308/3/4
f 309/3/4 310/3/4 313/3/4
f 313/3/4 310/3/4 314/3/4
f 311/3/4 312/3/4 315/3/4
f 315/3/4 312/3/4 316/3/4
f 317/3/4 318/3/4 321/3/4
f 321/3/4 318/3/4 322/3/4
f 319/3/4 320/3/4 323/3/4
f 323/3/4 320/3/4 324/3/4
f 325/3/4 326/3/4 329/3/4
f 329/3/4 326/3/4 330/3/4
f 327/3/4 328/3/4 331/3/4
f 331/3/4 328/3/4 332/3/4
f 333/3/4 334/3/4 335/3/4
f 335/3/4 334/3/4 336/3/4
f 339/3/5 338/3/5 337/3/5
f 340/3/5 338/3/5 339/3/5
f 343/3/5 342/3/5 341/3/5
f 344/3/5 342/3/5 343/3/5
f 347/3/5 346/3/5 345/3/5
f 348/3/5 346/3/5 347/3/5
f 351/3/5 350/3/5 349/3/5
f 352/3/5 350/3/5 351/3/5
f 355/3/5 354/3/5 353/3/5
f 356/3/5 354/3/5 355/3/5
f 359/3/5 358/3/5 357/3/5
f 360/3/5 358/3/5 359/3/5
f 363/3/5 362/3/5 361/3/5
f 364/3/5 362/3/5 363/3/5
f 367/3/5 366/3/5 365/3/5
f 368/3/5 366/3/5 367/3/5
f 371/3/5 370/3/5 369/3/5
f 372/3/5 370/3/5 371/3/5
f 375/3/5 374/3/5 373/3/5
f 376/3/5 374/3/5 375/3/5
f 379/3/5 378/3/5 377/3/5
f 380/3/5 378/3/5 379/3/5
f 381/3/6 382/3/6 383/3/6
f 383/3/6 382/3/6 384/3/6
f 385/3/6 386/3/6 387/3/6
f 387/3/6 386/3/6 388/3/6
f 389/3/6 390/3/6 391/3/6
f 391/3/6 390/3/6 392/3/6
f 393/3/6 394/3/6 395/3/6
f 395/3/6 394/3/6 396/3/6
f 397/3/6 398/3/6 399/3/6
f 399/3/6 398/3/6 400/3/6
f 401/3/6 402/3/6 403/3/6
f 403/3/6 402/3/6 404/3/6
f 405/3/6 406/3/6 407/3/6
f 407/3/6 406/3/6 408/3/6
f 409/3/6 410/3/6 411/3/6
f 411/3/6 410/3/6 412/3/6
f 413/3/6 414/3/6 415/3/6
f 415/3/6 414/3/6 416/3/6
f 417/3/6 418/3/6 419/3/6
f 419/3/6 418/3/6 420/3/6
f 421/3/6 422/3/6 423/3/6
f 423/3/6 422/3/6 424/3/6
